<?xml version="1.0" encoding="UTF-8"?>
<svg id="a" xmlns="http://www.w3.org/2000/svg" viewBox="0 0 172 80">
  <g>
    <path d="M5.43342,27.04174c-.50375-.4433-.85189-1.18697-1.04344-2.23076L0,.31316h4.24568l3.34652,20.85843h.07239L13.2418,1.76114h1.58315c1.12765,0,1.89485.70431,2.30307,2.11317l4.78588,17.25816h.07189L25.3323.31316h4.24617l-4.42592,24.49781c-.19254.99189-.52197,1.72203-.98978,2.19165s-1.10993.70431-1.92489.70431h-1.72742L14.89733,7.82686h-.07239l-5.75743,19.88007h-1.72693c-.76818,0-1.40341-.2214-1.90716-.66519h.00001Z" style="fill: #8dc63f;"/>
    <path d="M35.46147,26.78737c-.56383-.6128-.8455-1.41501-.8455-2.4069V.31316h18.45952v3.95255h-14.24929v7.43547h13.16989v3.99166h-13.16989v8.06155h14.24929v3.95255h-15.36512c-.93511,0-1.68557-.30627-2.2489-.91957Z" style="fill: #8dc63f;"/>
    <path d="M59.98423,25.67199c-1.43936-1.56532-2.15928-3.70433-2.15928-6.418h4.13833c0,1.46151.35356,2.61576,1.06167,3.46324.70712.84822,1.68458,1.27184,2.93239,1.27184h3.99406c1.17542,0,2.12333-.27995,2.84277-.84133.71993-.56064,1.07989-1.29742,1.07989-2.21108v-1.72178c0-.70456-.25212-1.29152-.75587-1.76114s-1.22368-.79533-2.15928-.97836l-6.54876-1.21305c-2.03913-.36507-3.60455-1.0957-4.69577-2.19165-1.09219-1.0957-1.63731-2.49104-1.63731-4.18723v-2.15229c0-1.33064.32943-2.50457.98928-3.52204.65985-1.01772,1.58906-1.80641,2.78909-2.36779,1.19905-.56064,2.59064-.84133,4.17379-.84133h4.06645c1.48712,0,2.80042.3326,3.9399.99804,1.13948.66519,2.02091,1.61108,2.64481,2.83716.6239,1.22658.93561,2.63544.93561,4.22635h-4.1019c0-1.19952-.31811-2.17197-.95383-2.91539-.63572-.74367-1.45708-1.11538-2.46459-1.11538h-4.06645c-1.12766,0-2.03273.2679-2.71671.80222-.68349.53506-1.02523,1.25905-1.02523,2.17197v1.40886c0,.73063.23932,1.33728.71943,1.81969.47963.48315,1.17492.80222,2.08689.95892l6.54925,1.25216c2.06277.39139,3.65231,1.11538,4.76765,2.17197,1.11584,1.05659,1.67325,2.40666,1.67325,4.05046v2.54368c0,1.33064-.33632,2.51121-1.00751,3.54172-.67167,1.03076-1.61909,1.83298-2.84277,2.40666-1.22319.57344-2.62659.86101-4.20974.86101h-4.13833c-2.49511,0-4.46186-.78278-5.90122-2.34811Z" style="fill: #8dc63f;"/>
    <path d="M89.34702,4.26571h-7.9886V.31316h20.18695v3.95255h-7.98811v23.44123h-4.21024V4.26571Z" style="fill: #8dc63f;"/>
    <path d="M5.1813,61.94847c-1.34383-.84748-2.38727-2.04798-3.13034-3.60051-.74405-1.55179-1.11534-3.3459-1.11534-5.38084v-7.5137c0-2.03494.37769-3.82856,1.13307-5.38109.75587-1.55179,1.81754-2.75205,3.18501-3.60027,1.36697-.84748,2.95061-1.27184,4.74944-1.27184h3.81432c1.7033,0,3.21455.39803,4.53425,1.19361,1.31872.79607,2.33902,1.9176,3.05845,3.36558s1.07939,3.1245,1.07939,5.02857h-4.13784c0-1.66914-.42004-3.0133-1.25963-4.03078-.84008-1.01747-1.93129-1.52621-3.27462-1.52621h-3.81432c-1.46349,0-2.6389.58697-3.52625,1.76114-.88784,1.17393-1.33152,2.71367-1.33152,4.61774v7.20078c0,1.93089.43186,3.47677,1.29557,4.63717.86371,1.16138,2.0027,1.74146,3.41841,1.74146h3.88622c1.3911,0,2.51875-.57344,3.38246-1.72178.86371-1.14761,1.29557-2.6347,1.29557-4.46128h4.13784c0,2.03494-.36587,3.82241-1.09712,5.36141-.73224,1.53974-1.76337,2.73335-3.09489,3.58083-1.33152.84798-2.8728,1.27184-4.62386,1.27184h-3.88622c-1.77568,0-3.3347-.42386-4.67804-1.27184h0Z" style="fill: #1f2181;"/>
    <path d="M28.732,61.98759c-.56383-.6128-.8455-1.41501-.8455-2.4069v-24.06731h18.45952v3.95255h-14.24929v7.43547h13.16989v3.99166h-13.16989v8.06155h14.24929v3.95255h-15.36512c-.93511,0-1.68557-.30627-2.2489-.91956h0Z" style="fill: #1f2181;"/>
    <path d="M51.95917,35.51338h3.77838l12.73804,20.03653v-20.03653h4.10239v27.39377h-3.81432l-12.70209-19.9583v19.9583h-4.10239v-27.39377h-.00002Z" style="fill: #1f2181;"/>
    <path d="M85.46031,39.46593h-7.9886v-3.95255h20.18695v3.95255h-7.98811v23.44123h-4.21024v-23.44123Z" style="fill: #1f2181;"/>
    <path d="M102.55187,35.51338h12.99017c2.06277,0,3.73012.61329,5.00156,1.83913,1.27144,1.22682,1.90716,2.84405,1.90716,4.85267v2.77861c0,1.35671-.37769,2.55032-1.13356,3.58083-.75538,1.03076-1.80523,1.79386-3.14856,2.28931v.07823c.76769.49594,1.38569,1.12867,1.85349,1.89792.4678.76999.86913,1.76778,1.20546,2.99387l2.015,7.08319h-4.35401l-1.9431-6.77028c-.31219-1.17393-.79182-2.07406-1.43936-2.70014s-1.40341-.93924-2.26712-.93924h-6.47686v10.40966h-4.21024v-27.39377h-.00002ZM114.60643,48.54495c1.10303,0,1.98496-.32596,2.64481-.97836.65936-.65191.98978-1.49989.98978-2.54368v-2.70039c0-.83445-.25212-1.51268-.75587-2.03494-.50375-.52153-1.17542-.78254-2.015-.78254h-8.70804v9.03991s7.84433,0,7.84433,0Z" style="fill: #1f2181;"/>
    <path d="M143.03312,56.13688h-10.00311l-2.33902,6.77028h-4.35401l9.78743-27.39377h1.90716c1.29556,0,2.19523.69152,2.69899,2.07406l8.99562,25.31971h-4.38996l-2.30307-6.77028h-.00003ZM134.21725,52.30192h7.62865l-3.77837-11.11421h-.03595s-3.81432,11.11421-3.81432,11.11421Z" style="fill: #1f2181;"/>
    <path d="M154.94389,62.00702c-.55201-.59976-.82777-1.39533-.82777-2.38722v-24.10642h4.21023v23.40211h13.67365v3.99166h-14.78949c-.95974,0-1.71511-.29963-2.26663-.90013h.00002Z" style="fill: #1f2181;"/>
  </g>
  <polygon points="146.19319 33.46261 137.70795 18.77905 133.72751 11.89243 127.01704 .27729 134.97778 .27729 137.70967 5.00394 141.68838 11.89093 146.19319 19.68601 146.19319 19.68601 150.17293 26.57301 146.19319 33.46261" style="fill: #8dc63f;"/>
  <polygon points="135.49969 26.57301 131.52006 19.68601 131.52006 19.68601 127.01536 11.89093 123.03662 5.00394 120.30483 .27729 112.34391 .27729 119.05445 11.89243 123.03494 18.77905 131.52006 33.46261 135.49969 26.57301" style="fill: #007ac2;"/>
  <polygon points="163.60182 .27729 155.90204 .27729 141.90205 .27729 148.90198 12.39092 152.75201 19.05381 163.60182 .27729" style="fill: #1f2181;"/>
  <g>
    <path d="M12.24759,71.60438h1.09368l-2.53204,8.26573h-.83219l-1.77125-6.0576-1.75943,6.0576h-.84401l-2.53204-8.26573h1.12963l1.83034,6.21111,1.78356-6.21111h.79625l1.80671,6.21111,1.83084-6.21111h-.00003Z" style="fill: #007ac2;"/>
    <path d="M17.91539,78.85461h4.33875v1.0155h-5.43243v-8.26573h5.31376v1.0155h-4.22008v2.50334h3.76803v1.0037h-3.76803s0,2.72769,0,2.72768Z" style="fill: #007ac2;"/>
    <path d="M30.40673,75.73725c0-2.43249,1.81853-4.26276,3.92266-4.26276,1.81902,0,3.17416,1.34613,3.55432,2.95205h-1.11732c-.32106-1.02731-1.15325-1.92474-2.43701-1.92474-1.49796,0-2.82898,1.32252-2.82898,3.23544s1.33103,3.23544,2.82898,3.23544c1.3197,0,2.16371-.89742,2.49659-1.91293h1.11732c-.39246,1.5823-1.74762,2.94024-3.61391,2.94024-2.10413,0-3.92266-1.83027-3.92266-4.26276v.00002Z" style="fill: #007ac2;"/>
    <path d="M41.23417,75.73725c0-2.43249,1.81853-4.26276,3.92266-4.26276s3.92315,1.83027,3.92315,4.26276-1.81902,4.26276-3.92315,4.26276-3.92266-1.83027-3.92266-4.26276ZM47.98629,75.73725c0-1.91293-1.3197-3.23544-2.82947-3.23544-1.49796,0-2.82899,1.32252-2.82899,3.23544s1.33103,3.23544,2.82899,3.23544c1.50978,0,2.82947-1.32252,2.82947-3.23544Z" style="fill: #007ac2;"/>
    <path d="M58.18342,71.60438h1.08186v8.26573h-1.02227l-4.23239-6.341v6.341h-1.08136v-8.26573h1.02227l4.2319,6.341s0-6.341,0-6.341Z" style="fill: #007ac2;"/>
    <path d="M68.86854,71.60438h1.08186v8.26573h-1.02227l-4.2324-6.341v6.341h-1.08137v-8.26573h1.02227l4.2319,6.341s0-6.341,0-6.341Z" style="fill: #007ac2;"/>
    <path d="M75.39269,78.85461h4.33876v1.0155h-5.43243v-8.26573h5.31375v1.0155h-4.22008v2.50334h3.76803v1.0037h-3.76803s0,2.72769,0,2.72768Z" style="fill: #007ac2;"/>
    <path d="M82.98685,75.73725c0-2.43249,1.81853-4.26276,3.92266-4.26276,1.81902,0,3.17416,1.34613,3.55432,2.95205h-1.11732c-.32106-1.02731-1.15326-1.92474-2.43701-1.92474-1.49796,0-2.82899,1.32252-2.82899,3.23544s1.33103,3.23544,2.82899,3.23544c1.3197,0,2.16371-.89742,2.49659-1.91293h1.11732c-.39246,1.5823-1.74762,2.94024-3.61391,2.94024-2.10413,0-3.92266-1.83027-3.92266-4.26276l.00002.00002Z" style="fill: #007ac2;"/>
    <path d="M95.79975,79.87011v-7.23842h-2.52023v-1.02731h6.13413v1.02731h-2.52023v7.23842s-1.09368,0-1.09367,0Z" style="fill: #007ac2;"/>
    <path d="M112.14283,71.60438h1.16458l-2.73394,5.07752v3.18821h-1.09368v-3.18821l-2.72212-5.07752h1.20053l2.09231,3.96755s2.09231-3.96755,2.09232-3.96755Z" style="fill: #007ac2;"/>
    <path d="M115.86212,75.73725c0-2.43249,1.81853-4.26276,3.92266-4.26276s3.92315,1.83027,3.92315,4.26276-1.81902,4.26276-3.92315,4.26276-3.92266-1.83027-3.92266-4.26276ZM122.61424,75.73725c0-1.91293-1.3197-3.23544-2.82947-3.23544-1.49796,0-2.82899,1.32252-2.82899,3.23544s1.33103,3.23544,2.82899,3.23544c1.50978,0,2.82947-1.32252,2.82947-3.23544Z" style="fill: #007ac2;"/>
    <path d="M127.49761,76.84722v-5.24284h1.09367v5.24284c0,1.28709.78443,2.12547,1.99727,2.12547,1.20054,0,1.99678-.83838,1.99678-2.12547v-5.24284h1.09367v5.24284c0,1.81846-1.23647,3.15279-3.09046,3.15279-1.86678,0-3.09095-1.33433-3.09095-3.15279h.00003Z" style="fill: #007ac2;"/>
  </g>
</svg>